Coordinates
version=1
nRows=16
nColumns=40
inDegrees=yes

Units are S.I. units (second, meters, Newtons, ...)
Angles are in degrees.

endheader
time	pelvis_tilt	pelvis_list	pelvis_rotation	pelvis_tx	pelvis_ty	pelvis_tz	hip_flexion_r	hip_adduction_r	hip_rotation_r	knee_angle_r	knee_angle_r_beta	ankle_angle_r	subtalar_angle_r	mtp_angle_r	hip_flexion_l	hip_adduction_l	hip_rotation_l	knee_angle_l	knee_angle_l_beta	ankle_angle_l	subtalar_angle_l	mtp_angle_l	lumbar_extension	lumbar_bending	lumbar_rotation	arm_flex_r	arm_add_r	arm_rot_r	elbow_flex_r	pro_sup_r	wrist_flex_r	wrist_dev_r	arm_flex_l	arm_add_l	arm_rot_l	elbow_flex_l	pro_sup_l	wrist_flex_l	wrist_dev_l
     50.42000000	     -4.02786376	     -5.19355348	     -2.87609534	      0.93072264	      0.91846972	      0.46549955	     19.02199277	     -6.05566500	     -4.74753353	     60.52607991	     60.52607991	     -1.83579162	    -18.21067584	     -3.14776425	     21.86674165	     -4.40607250	     -2.80381200	     32.20524405	     32.20524405	     16.93366269	    -17.39118543	      7.84522649	     -9.99594375	      6.34722240	      2.64378604	     27.37936002	    -13.03758299	    -13.50649866	     33.37224787	     45.67432415	      0.00000000	      0.00000000	     19.11432612	    -15.75988906	      9.93371139	     43.84617492	     45.98183533	      0.00000000	      0.00000000
     50.43900000	     -3.83645901	     -5.01584711	     -3.61567501	      0.93004743	      0.91707295	      0.46427580	     20.55518754	     -6.26942934	     -4.38635694	     62.82493941	     62.82493941	     -1.29863145	    -18.83983373	     -1.17250469	     21.54937004	     -4.18240705	     -3.06851980	     32.91319894	     32.91319894	     17.64574625	    -18.01554138	      8.18594834	    -10.10417051	      6.46719707	      2.74040070	     24.00236467	    -12.85412576	    -13.46357886	     31.48960845	     45.73538986	      0.00000000	      0.00000000	     20.18295803	    -16.01970085	      9.51352256	     44.92626069	     46.04917537	      0.00000000	      0.00000000
     50.45800000	     -3.62919848	     -4.92712728	     -4.41190539	      0.92920409	      0.91593965	      0.46343457	     22.27845797	     -5.99820508	     -3.61928419	     65.26275034	     65.26275034	      1.39360474	    -18.98596239	      7.59552691	     21.23547071	     -4.13594245	     -3.53753123	     33.71905733	     33.71905733	     18.94447686	    -18.20679865	      9.87536160	    -10.40061736	      6.63588206	      2.48903566	     20.86968040	    -12.44427744	    -13.49675195	     29.22156461	     45.84732562	      0.00000000	      0.00000000	     20.85630919	    -16.62283402	      8.59561596	     46.80389708	     46.17877765	      0.00000000	      0.00000000
     50.47700000	     -3.43398584	     -4.80502935	     -5.19977822	      0.92827849	      0.91505195	      0.46267650	     23.77443963	     -5.86522448	     -3.09870140	     66.99604110	     66.99604110	      2.97749126	    -19.18872224	     11.86518904	     20.79682961	     -4.05200233	     -4.05817023	     34.22955372	     34.22955372	     19.83643516	    -18.40958249	     10.67105128	    -10.67665183	      6.79792135	      2.46321662	     17.67636023	    -12.21125570	    -13.67853432	     27.03817375	     45.97077501	      0.00000000	      0.00000000	     21.76285864	    -17.06129736	      7.62221709	     48.43816261	     46.31180520	      0.00000000	      0.00000000
     50.49600000	     -3.29163950	     -4.68502330	     -5.97909943	      0.92720866	      0.91454569	      0.46217872	     25.10525325	     -5.72936284	     -2.73329920	     68.00761659	     68.00761659	      3.84410681	    -19.31753958	     12.77831891	     20.27262803	     -3.99388220	     -4.65508416	     34.43488751	     34.43488751	     20.39559549	    -18.55360328	     10.81292366	    -10.91673236	      6.95297357	      2.66039841	     14.27266165	    -12.13735823	    -13.77375644	     25.23768150	     46.04152652	      0.00000000	      0.00000000	     22.95408453	    -17.40542360	      6.99091756	     49.73741774	     46.39918658	      0.00000000	      0.00000000
     50.51500000	     -3.20793958	     -4.61544176	     -6.73140053	      0.92591744	      0.91460230	      0.46211805	     26.37791976	     -5.35965396	     -2.36645790	     68.40665791	     68.40665791	      5.00642392	    -19.36034860	     14.11458585	     19.68264954	     -4.00309885	     -5.25281822	     34.35787608	     34.35787608	     20.88654667	    -18.61719362	     11.11018786	    -11.13919570	      7.13832060	      2.73464880	     11.07601071	    -11.98307123	    -13.93625344	     23.55772118	     46.12031224	      0.00000000	      0.00000000	     24.02577622	    -17.85833419	      6.17692398	     51.16997269	     46.50169336	      0.00000000	      0.00000000
     50.53400000	     -3.23857517	     -4.62715273	     -7.43936141	      0.92437339	      0.91520426	      0.46247862	     27.54993690	     -4.80368969	     -2.12764629	     67.99327029	     67.99327029	      5.86748477	    -19.36051623	     14.04920724	     19.09484244	     -4.11544614	     -5.80985862	     34.00559826	     34.00559826	     21.11734154	    -18.67618608	     11.21038600	    -11.23231620	      7.43658296	      2.04689816	      8.32945668	    -11.63122469	    -14.00994237	     22.47107472	     46.15137029	      0.00000000	      0.00000000	     24.95187894	    -18.96133950	      5.66958844	     51.62844208	     46.55952172	      0.00000000	      0.00000000
     50.55300000	     -3.36952634	     -4.55749128	     -8.23485102	      0.92260874	      0.91634902	      0.46340108	     28.76322223	     -4.07541984	     -1.68139446	     66.95096165	     66.95096165	      7.13817050	    -19.27594909	     15.21626934	     18.40236447	     -4.20016885	     -6.56352803	     33.22871369	     33.22871369	     21.22047120	    -18.58341076	     11.27799533	    -11.37174653	      7.52366053	      2.18460795	      5.33742729	    -11.48163625	    -14.66736725	     21.10608756	     46.33041165	      0.00000000	      0.00000000	     25.41309961	    -19.14583347	      3.22275797	     54.80784958	     46.81389951	      0.00000000	      0.00000000
     50.57200000	     -3.59027889	     -4.56309875	     -8.98414567	      0.92066508	      0.91804021	      0.46470620	     29.72285073	     -3.25477335	     -1.41987158	     64.91823741	     64.91823741	      7.67065684	    -19.11873861	     13.91883970	     17.66907775	     -4.36194556	     -7.25239036	     32.16120175	     32.16120175	     21.06688705	    -18.51310745	     11.11280328	    -11.37215915	      7.71773957	      2.20604125	      2.52524181	    -11.34541635	    -14.90723060	     19.96950151	     46.41945501	      0.00000000	      0.00000000	     26.42471059	    -19.67191023	      2.20717461	     56.20798002	     46.92276727	      0.00000000	      0.00000000
     50.59100000	     -3.83199521	     -4.57203611	     -9.71067774	      0.91864736	      0.92015667	      0.46631588	     30.35398820	     -2.47944975	     -1.29649741	     61.92559340	     61.92559340	      7.23935119	    -18.88022633	      9.63167032	     16.76932062	     -4.53366350	     -8.05322543	     30.70038956	     30.70038956	     20.43967574	    -18.42878931	     10.08472878	    -11.38766389	      7.89213755	      1.78875709	     -0.11516901	    -11.14546902	    -15.46842003	     19.68406921	     46.55883998	      0.00000000	      0.00000000	     26.92157051	    -20.37838441	      0.28519758	     58.29712883	     47.10259961	      0.00000000	      0.00000000
     50.61000000	     -4.36058479	     -4.59048667	    -10.41243718	      0.91628699	      0.92205813	      0.46838550	     31.19193410	     -1.51466091	     -1.07417322	     58.50684760	     58.50684760	      7.91940859	    -18.09849216	      9.29753095	     16.25402173	     -4.76593650	     -8.72823210	     29.36759005	     29.36759005	     20.29968099	    -18.18068667	     10.30751203	    -11.02873606	      8.09887671	      1.40394626	     -2.46838584	    -10.99441470	    -15.55004703	     18.88915883	     46.58506401	      0.00000000	      0.00000000	     27.95229271	    -21.47552310	     -0.24475094	     58.91988338	     47.15932115	      0.00000000	      0.00000000
     50.62900000	     -4.51933649	     -4.51584319	    -11.16753093	      0.91434589	      0.92469771	      0.47055684	     30.94149647	     -0.95043253	     -1.08575153	     53.62292434	     53.62292434	      5.66288066	    -17.67341285	      0.01395279	     14.92184715	     -4.78194524	     -9.62579260	     27.22502294	     27.22502294	     19.01384128	    -18.13816250	      8.16052431	    -11.21404539	      8.11975950	      1.39586430	     -5.17049815	    -10.91685824	    -16.10043321	     19.45645853	     46.71736605	      0.00000000	      0.00000000	     28.41297608	    -21.74808034	     -2.47796909	     61.87344405	     47.36520886	      0.00000000	      0.00000000
     50.64800000	     -4.87151888	     -4.49322261	    -11.85496710	      0.91223044	      0.92683730	      0.47303882	     30.89688332	     -0.24319341	     -1.07077277	     48.85443395	     48.85443395	      6.13528288	    -15.55087575	     -0.57021009	     14.03555712	     -4.89491956	    -10.35849178	     25.57094589	     25.57094589	     18.75558876	    -17.80670225	      8.29537952	    -11.09914400	      8.19956068	      1.36521796	     -7.30725838	    -10.90635903	    -16.19502370	     18.92442353	     46.74278075	      0.00000000	      0.00000000	     29.51203244	    -22.46307807	     -3.02982948	     62.97171887	     47.42807019	      0.00000000	      0.00000000
     50.66700000	     -5.25287728	     -4.24815059	    -12.52873112	      0.91025056	      0.92842227	      0.47548252	     30.66386592	      0.03241778	     -1.29654728	     43.70161828	     43.70161828	      5.88690206	    -12.60488229	     -2.97350736	     13.13364252	     -4.73581860	    -11.15222481	     23.71807606	     23.71807606	     17.98401621	    -17.59745386	      7.27389553	    -10.92168706	      8.08279477	      1.41447084	     -9.70135430	    -10.78573320	    -16.50278760	     19.44419613	     46.75591124	      0.00000000	      0.00000000	     30.34389419	    -22.91616433	     -4.24785592	     65.20397136	     47.55381955	      0.00000000	      0.00000000
     50.68600000	     -5.54586117	     -4.10380926	    -13.13522321	      0.90844850	      0.92963389	      0.47823017	     30.06433077	      0.40041002	     -1.61217850	     38.37659526	     38.37659526	      5.80926701	     -9.25998324	     -3.81374514	     12.26490666	     -4.71022053	    -11.90823984	     22.17663013	     22.17663013	     17.47657327	    -17.23185350	      6.44318649	    -10.85073668	      8.04675992	      1.26880433	    -11.60465728	    -10.73369210	    -16.70981704	     19.80209715	     46.75939608	      0.00000000	      0.00000000	     31.29357171	    -23.62537931	     -5.21206037	     66.71535438	     47.65078188	      0.00000000	      0.00000000
     50.70500000	     -5.96387813	     -3.99427148	    -13.65565930	      0.90677614	      0.93008931	      0.48113118	     29.42062851	      0.91431058	     -1.75563950	     33.11227691	     33.11227691	      5.65024807	     -6.30423087	     -3.31425920	     11.74655952	     -4.77819326	    -12.55195037	     21.08245519	     21.08245519	     17.34223992	    -16.83748032	      6.16337438	    -10.54716952	      8.11606023	      1.12833053	    -13.09911628	    -10.69489630	    -16.81146825	     19.72067272	     46.76254066	      0.00000000	      0.00000000	     32.31208510	    -24.29977481	     -5.74025002	     67.67891678	     47.70880892	      0.00000000	      0.00000000
